<svg id="Layer_1" data-name="Layer 1" xmlns="http://www.w3.org/2000/svg" viewBox="0 0 22 22"><defs><style>.cls-1{fill:#6abfa6;opacity:0.99;}</style></defs><path class="cls-1" d="M18,0H4A4,4,0,0,0,0,4V8a2,2,0,0,0,2,2H20a2,2,0,0,0,2-2V4A4,4,0,0,0,18,0ZM7,4H5A1,1,0,0,0,4,5V7A1,1,0,0,1,2,7V5A3,3,0,0,1,5,2H7A1,1,0,0,1,7,4ZM20,7a1,1,0,0,1-2,0V5a1,1,0,0,0-1-1H15a1,1,0,0,1,0-2h2a3,3,0,0,1,3,3Z"/><path class="cls-1" d="M20,12H2a2,2,0,0,0-2,2v4a4,4,0,0,0,4,4H18a4,4,0,0,0,4-4V14A2,2,0,0,0,20,12ZM7,20H5a3,3,0,0,1-3-3V15a1,1,0,0,1,2,0v2a1,1,0,0,0,1,1H7a1,1,0,0,1,0,2Zm13-3a3,3,0,0,1-3,3H15a1,1,0,0,1,0-2h2a1,1,0,0,0,1-1V15a1,1,0,0,1,2,0Z"/></svg>